# xmcd
#
# Track frame offsets:
#	150
#	17786
#	30884
#	43480
#	55933
#	85670
#	95470
#	111752
#	128716
#	145596
#	166525
#
# Disc length: 2552 seconds
#
# Revision: 1
# Processed by: cddbd v1.5.2PL0 Copyright (c) Steve Scherf et al.
# Submitted via: FairStars CD Ripper 1.90
#
DISCID=7f09f60b
DTITLE=Leyla McCalla - Capitalist Blues
DYEAR=2019
DGENRE=Blues
TTITLE0=The Capitalist Blues
TTITLE1=Money Is King
TTITLE2=Lavi Vye Neg
TTITLE3=Penha
TTITLE4=Heavy as Lead
TTITLE5=Me and My Baby
TTITLE6=Aleppo
TTITLE7=Mize Pa Dous
TTITLE8=Oh My Love
TTITLE9=Ain't No Use
TTITLE10=Settle Down
EXTD=
EXTT0=
EXTT1=
EXTT2=
EXTT3=
EXTT4=
EXTT5=
EXTT6=
EXTT7=
EXTT8=
EXTT9=
EXTT10=
PLAYORDER=
